<?xml version="1.0" encoding="utf-8"?>
<!-- Generator: Adobe Illustrator 16.0.0, SVG Export Plug-In . SVG Version: 6.00 Build 0)  -->
<!DOCTYPE svg PUBLIC "-//W3C//DTD SVG 1.1//EN" "http://www.w3.org/Graphics/SVG/1.1/DTD/svg11.dtd">
<svg version="1.1" id="Layer_1" xmlns="http://www.w3.org/2000/svg" xmlns:xlink="http://www.w3.org/1999/xlink" x="0px" y="0px"
	 width="126px" height="126px" viewBox="0 0 126 126" enable-background="new 0 0 126 126" xml:space="preserve">
<g fill="#20a0ff">
	<g>
		<path d="M63.78,101.884c-21.448,0-38.897-17.449-38.897-38.897S42.332,24.089,63.78,24.089h1.5v36.061h37.313l0.056,1.579
			c0.015,0.418,0.029,0.836,0.029,1.258C102.678,84.435,85.229,101.884,63.78,101.884z M62.28,27.12
			C43.18,27.909,27.883,43.695,27.883,62.986c0,19.794,16.104,35.897,35.897,35.897c19.739,0,35.809-16.015,35.897-35.734H62.28
			V27.12z"/>
	</g>
	<g>
		<path d="M19.941,62.986c0-11.71,4.561-22.719,12.84-30.999c15.357-15.356,39.362-16.904,56.476-4.668h-3.144c-1.656,0-3,1.343-3,3
			s1.344,3,3,3h11.141c0.795,0,1.559-0.316,2.121-0.879s0.879-1.325,0.879-2.121l-0.001-11.5c0-1.657-1.343-3-3-3s-3,1.344-3,3
			v3.482C74.354,7.377,45.921,8.948,27.832,27.038C18.23,36.64,12.941,49.407,12.941,62.986s5.289,26.346,14.891,35.947
			c7.557,7.558,17.105,12.471,27.615,14.208l1.142-6.906c-9.058-1.498-17.29-5.734-23.808-12.251
			C24.502,85.704,19.941,74.695,19.941,62.986z"/>
	</g>
	<g>
		<path d="M76.024,105.089c-4.628,1.341-9.425,1.905-14.256,1.689l-0.318,6.992c0.782,0.036,1.562,0.054,2.341,0.054
			c4.806,0,9.565-0.675,14.182-2.013c1.529-0.442,3.06-0.966,4.549-1.555l-2.574-6.51C78.662,104.255,77.343,104.707,76.024,105.089
			z"/>
	</g>
	<g>
		<path d="M88.984,98.863c-1.98,1.396-4.09,2.633-6.27,3.676l3.021,6.314c2.531-1.211,4.98-2.647,7.279-4.268
			c2.38-1.675,4.639-3.576,6.713-5.651l-4.95-4.949C92.986,95.776,91.038,97.418,88.984,98.863z"/>
	</g>
	<g>
		<path d="M101.002,86.166c-0.731,1.173-1.527,2.321-2.365,3.415c-0.457,0.598-0.931,1.185-1.422,1.763l5.334,4.533
			c0.568-0.67,1.123-1.356,1.646-2.041c0.973-1.27,1.896-2.604,2.746-3.965c0.961-1.54,1.848-3.15,2.637-4.785l-6.303-3.043
			C102.595,83.452,101.83,84.839,101.002,86.166z"/>
	</g>
	<g>
		<path d="M106.272,73.796c-0.501,1.978-1.146,3.936-1.917,5.82l6.479,2.65c0.895-2.187,1.643-4.458,2.224-6.752L106.272,73.796z"/>
	</g>
</g>
</svg>
