<?xml version="1.0" encoding="utf-8"?>
<!-- Generator: Adobe Illustrator 16.0.0, SVG Export Plug-In . SVG Version: 6.00 Build 0)  -->
<!DOCTYPE svg PUBLIC "-//W3C//DTD SVG 1.1//EN" "http://www.w3.org/Graphics/SVG/1.1/DTD/svg11.dtd">
<svg version="1.1" id="Layer_2" xmlns="http://www.w3.org/2000/svg" xmlns:xlink="http://www.w3.org/1999/xlink" x="0px" y="0px"
	 width="126px" height="126px" viewBox="0 0 126 126" enable-background="new 0 0 126 126" xml:space="preserve">
<g fill="#20a0ff">
	<path d="M110.107,57.51c-2.523,0-4.813,1.001-6.506,2.621L82.122,41.295c0.736-1.342,1.156-2.882,1.156-4.518
		c0-5.201-4.232-9.432-9.433-9.432c-5.201,0-9.432,4.231-9.432,9.432c0,3.814,2.28,7.1,5.545,8.584L56.48,81.071
		c-1.307-0.686-2.79-1.079-4.364-1.079c-3,0-5.671,1.413-7.4,3.602L24.901,71.909c0.9-1.445,1.428-3.143,1.428-4.966
		c0-5.201-4.232-9.433-9.432-9.433c-5.201,0-9.432,4.232-9.432,9.433c0,5.2,4.231,9.431,9.432,9.431
		c2.785,0,5.284-1.221,7.012-3.146l19.899,11.735c-0.716,1.329-1.125,2.848-1.125,4.461c0,5.2,4.232,9.432,9.433,9.432
		c5.2,0,9.432-4.231,9.432-9.432c0-3.025-1.437-5.715-3.658-7.442l13.617-36.078c0.749,0.192,1.53,0.305,2.338,0.305
		c2.973,0,5.624-1.385,7.354-3.542l21.319,18.695c-1.153,1.565-1.844,3.491-1.844,5.579c0,5.2,4.232,9.431,9.433,9.431
		s9.432-4.231,9.432-9.431C119.539,61.742,115.308,57.51,110.107,57.51z M16.897,71.453c-2.488,0-4.511-2.023-4.511-4.51
		c0-2.489,2.023-4.511,4.511-4.511s4.511,2.022,4.511,4.511C21.409,69.43,19.385,71.453,16.897,71.453z M52.116,93.935
		c-2.488,0-4.511-2.023-4.511-4.51c0-2.488,2.023-4.512,4.511-4.512c2.487,0,4.511,2.023,4.511,4.512
		C56.626,91.912,54.603,93.935,52.116,93.935z M73.845,41.289c-2.488,0-4.511-2.023-4.511-4.511c0-2.487,2.023-4.511,4.511-4.511
		c2.487,0,4.511,2.023,4.511,4.511C78.356,39.266,76.333,41.289,73.845,41.289z M110.107,71.453c-2.487,0-4.512-2.023-4.512-4.51
		c0-2.489,2.024-4.511,4.512-4.511c2.488,0,4.511,2.022,4.511,4.511C114.618,69.43,112.595,71.453,110.107,71.453z"/>
	<path d="M25.286,59.67C26.979,40.344,43.241,25.131,63,25.131c2.36,0,4.667,0.228,6.909,0.643c1.084-0.342,2.237-0.529,3.434-0.529
		c4.254,0,7.966,2.34,9.935,5.797c8.285,5.275,14.386,13.677,16.635,23.534l3.238,2.839c0.686-0.472,1.417-0.863,2.181-1.173
		C102.081,35.804,84.339,20.131,63,20.131c-21.34,0-39.083,15.675-42.332,36.114C22.485,56.981,24.071,58.167,25.286,59.67z"/>
	<path d="M99.669,72.475C95.452,88.786,80.611,100.869,63,100.869c-2.606,0-5.151-0.265-7.61-0.769
		c-1.185,0.416-2.452,0.654-3.776,0.654c-4.679,0-8.704-2.827-10.472-6.86c-5.512-3.912-9.935-9.256-12.723-15.49l-4.723-2.786
		c-0.426,0.354-0.88,0.668-1.349,0.956C28.04,93.578,44.106,105.869,63,105.869c18.892,0,34.957-12.288,40.651-29.288
		C102.002,75.57,100.627,74.158,99.669,72.475z"/>
</g>
</svg>
