<?xml version="1.0" encoding="utf-8"?>
<!-- Generator: Adobe Illustrator 16.0.0, SVG Export Plug-In . SVG Version: 6.00 Build 0)  -->
<!DOCTYPE svg PUBLIC "-//W3C//DTD SVG 1.1//EN" "http://www.w3.org/Graphics/SVG/1.1/DTD/svg11.dtd">
<svg version="1.1" id="Layer_1" xmlns="http://www.w3.org/2000/svg" xmlns:xlink="http://www.w3.org/1999/xlink" x="0px" y="0px"
	 width="126px" height="126px" viewBox="0 0 126 126" enable-background="new 0 0 126 126" xml:space="preserve">
<path fill="#20a0ff" d="M111.889,73.237c0.012-0.071,0.025-0.142,0.021-0.216c-0.014-0.385-0.242-0.73-0.59-0.896l-11.84-5.631V44.56
	c0-0.414-0.248-0.788-0.627-0.95l-16.801-7.219V25.052c0-0.058-0.014-0.113-0.021-0.168c0.012-0.071,0.023-0.142,0.021-0.216
	c-0.016-0.385-0.242-0.73-0.59-0.896L64.42,15.667c-0.281-0.134-0.607-0.134-0.889,0l-17.043,8.105
	c-0.016,0.007-0.025,0.018-0.039,0.025c-0.014,0.008-0.031,0.011-0.045,0.019c-0.029,0.018-0.053,0.043-0.082,0.064
	c-0.033,0.025-0.068,0.049-0.098,0.078c-0.037,0.034-0.066,0.073-0.098,0.112c-0.025,0.032-0.053,0.063-0.074,0.098
	c-0.027,0.043-0.045,0.09-0.066,0.138c-0.016,0.036-0.033,0.071-0.045,0.109c-0.016,0.053-0.02,0.107-0.027,0.162
	c-0.004,0.032-0.016,0.062-0.016,0.094c0,0.006,0.002,0.011,0.002,0.017c0,0.006-0.004,0.012-0.004,0.019v11.464l-17.645,7.436
	c-0.385,0.162-0.635,0.538-0.635,0.954v21.413L14.68,72.126c-0.014,0.007-0.023,0.018-0.037,0.025
	c-0.016,0.008-0.031,0.011-0.045,0.019c-0.031,0.018-0.055,0.043-0.082,0.064c-0.035,0.025-0.068,0.049-0.1,0.078
	c-0.035,0.034-0.066,0.073-0.098,0.112c-0.025,0.032-0.053,0.063-0.072,0.098c-0.027,0.044-0.047,0.09-0.066,0.138
	c-0.016,0.036-0.033,0.071-0.045,0.109c-0.016,0.053-0.021,0.107-0.029,0.162c-0.004,0.032-0.014,0.062-0.016,0.094
	c0,0.006,0.002,0.011,0.002,0.017c0,0.006-0.002,0.012-0.002,0.018v20.264c0,0.372,0.199,0.715,0.523,0.899l16.904,9.614
	c0.158,0.09,0.336,0.136,0.512,0.136c0.047,0,0.092-0.012,0.139-0.018c0.045,0.006,0.092,0.018,0.137,0.018
	c0.178,0,0.354-0.045,0.514-0.136l7.756-4.411c0.084,0.088,0.186,0.165,0.305,0.22L64,110.337c0.139,0.064,0.287,0.096,0.436,0.096
	c0.152,0,0.307-0.034,0.447-0.103l21.508-10.356l6.793,3.863c0.158,0.09,0.334,0.136,0.512,0.136c0.047,0,0.092-0.012,0.139-0.018
	c0.045,0.006,0.09,0.018,0.137,0.018c0.178,0,0.354-0.045,0.512-0.136l16.906-9.614c0.322-0.184,0.523-0.527,0.523-0.899V73.405
	C111.912,73.348,111.898,73.292,111.889,73.237z M79.984,36.707c-0.08,0.229-0.076,0.467,0,0.681v6.98l-14.836,8.438V35.268
	l14.836-8.438V36.707z M47.967,26.475l14.836,8.338v17.992l-14.836-8.438V26.475z M32.506,81.411l-15.109-8.285l14.771-7.025
	l14.811,7.043L32.506,81.411z M33.34,83.621l14.836-8.438v17.538l-14.836,8.438V83.621z M64.426,108.254L42.709,98.212l7.014-3.99
	c0.322-0.184,0.523-0.527,0.523-0.899V73.405c0-0.058-0.014-0.113-0.023-0.168c0.014-0.071,0.025-0.142,0.021-0.216
	c-0.014-0.385-0.24-0.73-0.59-0.896l-17.043-8.105c-0.279-0.134-0.607-0.134-0.889,0l-2.035,0.968V45.247l16.209-6.831v6.554
	c0,0.372,0.201,0.715,0.523,0.899l16.904,9.614c0.16,0.09,0.336,0.136,0.512,0.136c0.047,0,0.092-0.012,0.139-0.019
	c0.047,0.007,0.092,0.019,0.139,0.019c0.176,0,0.354-0.045,0.512-0.136l16.904-9.614c0.324-0.184,0.523-0.527,0.523-0.899v-6.328
	l15.357,6.6v20.269l-3.133-1.49c-0.281-0.134-0.607-0.134-0.889,0l-17.043,8.105c-0.014,0.007-0.023,0.018-0.037,0.025
	c-0.016,0.008-0.031,0.011-0.045,0.019c-0.031,0.018-0.055,0.043-0.082,0.064c-0.035,0.025-0.068,0.049-0.1,0.078
	c-0.035,0.034-0.066,0.073-0.098,0.112c-0.025,0.032-0.053,0.063-0.072,0.098c-0.027,0.044-0.047,0.09-0.066,0.138
	c-0.016,0.036-0.033,0.071-0.045,0.109c-0.016,0.053-0.021,0.107-0.029,0.162c-0.004,0.032-0.014,0.062-0.016,0.094
	c0,0.006,0.002,0.011,0.002,0.017c0,0.006-0.002,0.012-0.002,0.018v20.264c0,0.372,0.199,0.715,0.523,0.899l7.924,4.508
	L64.426,108.254z M92.66,101.159l-5.088-2.895c-0.002-0.002-0.002-0.004-0.004-0.007c-0.193-0.399-0.607-0.616-1.025-0.578
	l-8.719-4.958V74.829l14.836,8.338V101.159z M94.172,81.411l-15.109-8.285l14.771-7.025l14.811,7.043L94.172,81.411z"/>
</svg>
