<?xml version="1.0" encoding="utf-8"?>
<!-- Generator: Adobe Illustrator 16.0.0, SVG Export Plug-In . SVG Version: 6.00 Build 0)  -->
<!DOCTYPE svg PUBLIC "-//W3C//DTD SVG 1.1//EN" "http://www.w3.org/Graphics/SVG/1.1/DTD/svg11.dtd">
<svg version="1.1" id="Layer_5" xmlns="http://www.w3.org/2000/svg" xmlns:xlink="http://www.w3.org/1999/xlink" x="0px" y="0px"
	 width="100px" height="100px" viewBox="0 0 100 100" enable-background="new 0 0 100 100" xml:space="preserve">
<path fill="#20a0ff" d="M34.422,28.459h40.451c0.727,0,1.315-0.588,1.315-1.314V15.189c0-0.727-0.589-1.314-1.315-1.314H34.422
	c-0.728,0-1.316,0.588-1.316,1.314v11.955C33.105,27.871,33.694,28.459,34.422,28.459z M37.381,17.375h17.266v6.908H37.381V17.375z
	 M34.422,46.096h40.451c0.727,0,1.315-0.588,1.315-1.314V32.824c0-0.725-0.589-1.314-1.315-1.314H34.422
	c-0.728,0-1.316,0.59-1.316,1.314v11.957C33.105,45.508,33.694,46.096,34.422,46.096z M37.381,34.834h17.266v6.906H37.381V34.834z
	 M34.422,48.977h39.276c-2.171,1.207-3.979,3.047-5.151,5.365c-0.151,0.299-0.303,0.59-0.453,0.871
	c-2.313-3.166-6.052-5.225-10.264-5.225H33.167C33.308,49.412,33.803,48.977,34.422,48.977z M88.148,58.09
	c-0.724-2.211-2.266-4.004-4.338-5.053c-1.215-0.617-2.573-0.941-3.928-0.941c-3.302,0-6.278,1.828-7.768,4.773
	c-1.9,3.752-3.768,6.375-5.697,7.967c0.077-0.467,0.115-0.943,0.115-1.426c0-4.799-3.903-8.703-8.703-8.703H29.4
	c-0.961,0-1.74,0.781-1.74,1.742l-0.004,25.922c0,0.461,0.184,0.904,0.51,1.23c0.327,0.326,0.769,0.51,1.231,0.51l32.316-0.031
	c14.064-0.057,22.282-12.148,25.928-19.35C88.692,62.658,88.873,60.299,88.148,58.09z M84.537,63.158
	C81.25,69.65,73.912,80.549,61.706,80.6l-30.568,0.027l0.003-22.438H57.83c2.88,0,5.223,2.342,5.223,5.221
	c0,1.201-0.424,2.324-1.168,3.248H42.552c-0.961,0-1.741,0.779-1.741,1.74s0.78,1.74,1.741,1.74h20.131
	c0.055,0,0.106-0.012,0.16-0.016c0.021-0.002,0.042,0.004,0.063,0.002c0.031-0.006,0.062-0.014,0.093-0.018
	c0.02-0.004,0.039-0.008,0.058-0.01c5.975-0.863,9.639-6.67,12.164-11.656c0.895-1.768,2.68-2.865,4.662-2.865
	c0.821,0,1.612,0.189,2.354,0.566c1.245,0.629,2.169,1.705,2.604,3.031C85.274,60.498,85.167,61.914,84.537,63.158z M11.414,86.125
	h14.121V52.807H11.414V86.125z M18.475,56.545c1.496,0,2.709,1.213,2.709,2.709s-1.213,2.707-2.709,2.707
	c-1.495,0-2.708-1.211-2.708-2.707S16.979,56.545,18.475,56.545z"/>
</svg>
