<?xml version="1.0" encoding="utf-8"?>
<!-- Generator: Adobe Illustrator 16.0.0, SVG Export Plug-In . SVG Version: 6.00 Build 0)  -->
<!DOCTYPE svg PUBLIC "-//W3C//DTD SVG 1.1//EN" "http://www.w3.org/Graphics/SVG/1.1/DTD/svg11.dtd">
<svg version="1.1" id="Layer_5" xmlns="http://www.w3.org/2000/svg" xmlns:xlink="http://www.w3.org/1999/xlink" x="0px" y="0px"
	 width="100px" height="100px" viewBox="0 0 100 100" enable-background="new 0 0 100 100" xml:space="preserve">
<path fill="#20a0ff" d="M16.28,32.764h50.912c0.915,0,1.655-0.74,1.655-1.654V16.063c0-0.914-0.74-1.656-1.655-1.656H16.28
	c-0.915,0-1.655,0.742-1.655,1.656v15.047C14.625,32.023,15.365,32.764,16.28,32.764z M20.006,18.814h21.73v8.691h-21.73V18.814z
	 M68.848,45.938v-7.68c0-0.914-0.74-1.654-1.655-1.654H16.28c-0.915,0-1.655,0.74-1.655,1.654v15.047
	c0,0.916,0.74,1.656,1.655,1.656h29.438V51.16c0-2.881,2.343-5.223,5.223-5.223H68.848z M41.736,49.479h-21.73v-8.691h21.73V49.479z
	 M14.625,60.242v15.047c0,0.914,0.74,1.654,1.655,1.654h29.438V58.586H16.28C15.365,58.586,14.625,59.328,14.625,60.242z
	 M20.006,63.42h21.73v8.691h-21.73V63.42z M84.153,49.938H50.941c-0.676,0-1.223,0.547-1.223,1.223v33.211
	c0,0.674,0.547,1.223,1.223,1.223h33.212c0.675,0,1.222-0.549,1.222-1.223V51.16C85.375,50.484,84.828,49.938,84.153,49.938z
	 M56.544,51.771H78.55v10.289H56.544V51.771z M79.619,82.994H55.476V67.766h24.144V82.994z M72.336,53.299h3.057v7.336h-3.057
	V53.299z M77.403,71.535H57.69v-1.223h19.713V71.535z M77.403,75.813H57.69v-1.221h19.713V75.813z M77.403,79.939H57.69v-1.223
	h19.713V79.939z"/>
</svg>
